<svg width="387" height="85" viewBox="0 0 387 85" fill="none" xmlns="http://www.w3.org/2000/svg">
<path opacity="0.6" d="M53.73 33L52.65 29.634H47.466L46.386 33H45.288L49.41 20.67H50.76L54.864 33H53.73ZM47.772 28.716H52.362L50.076 21.552L47.772 28.716ZM61.2437 23.388C62.0957 23.388 62.7437 23.64 63.1877 24.144C63.6437 24.648 63.8717 25.356 63.8717 26.268V33H62.8277V26.412C62.8277 25.656 62.6777 25.104 62.3777 24.756C62.0777 24.408 61.6337 24.234 61.0457 24.234C60.4457 24.234 59.9117 24.402 59.4437 24.738C58.9877 25.062 58.5497 25.542 58.1297 26.178V33H57.0857V23.586H57.9857L58.0937 25.188C58.4777 24.624 58.9337 24.186 59.4617 23.874C59.9897 23.55 60.5837 23.388 61.2437 23.388ZM71.8815 32.604C71.2815 33 70.6215 33.198 69.9015 33.198C69.1815 33.198 68.6175 32.988 68.2095 32.568C67.8015 32.136 67.5975 31.518 67.5975 30.714V24.432H66.0135V23.586H67.5975V21.336L68.6415 21.21V23.586H71.0715L70.9455 24.432H68.6415V30.66C68.6415 31.212 68.7555 31.626 68.9835 31.902C69.2115 32.166 69.5595 32.298 70.0275 32.298C70.5075 32.298 70.9875 32.16 71.4675 31.884L71.8815 32.604ZM74.7762 23.586V33H73.7322V23.586H74.7762ZM74.2362 19.446C74.4762 19.446 74.6682 19.518 74.8122 19.662C74.9562 19.806 75.0282 19.986 75.0282 20.202C75.0282 20.418 74.9562 20.598 74.8122 20.742C74.6682 20.886 74.4762 20.958 74.2362 20.958C74.0082 20.958 73.8222 20.886 73.6782 20.742C73.5342 20.598 73.4622 20.418 73.4622 20.202C73.4622 19.986 73.5342 19.806 73.6782 19.662C73.8222 19.518 74.0082 19.446 74.2362 19.446ZM81.8058 23.388C82.3458 23.388 82.8258 23.466 83.2458 23.622C83.6658 23.766 84.0738 24.006 84.4698 24.342L83.9478 25.026C83.6358 24.774 83.3118 24.588 82.9758 24.468C82.6518 24.348 82.2798 24.288 81.8598 24.288C80.9718 24.288 80.2638 24.636 79.7358 25.332C79.2078 26.016 78.9438 27.018 78.9438 28.338C78.9438 29.646 79.2018 30.63 79.7178 31.29C80.2458 31.95 80.9538 32.28 81.8418 32.28C82.2618 32.28 82.6398 32.214 82.9758 32.082C83.3238 31.95 83.6718 31.752 84.0198 31.488L84.5238 32.19C83.7318 32.862 82.8318 33.198 81.8238 33.198C81.0198 33.198 80.3178 33.006 79.7178 32.622C79.1178 32.238 78.6498 31.686 78.3138 30.966C77.9898 30.234 77.8278 29.364 77.8278 28.356C77.8278 27.36 77.9898 26.49 78.3138 25.746C78.6498 24.99 79.1178 24.408 79.7178 24C80.3178 23.592 81.0138 23.388 81.8058 23.388ZM88.0653 23.586V33H87.0213V23.586H88.0653ZM88.8933 18.924L89.3613 19.86L85.8513 21.39L85.5093 20.778L88.8933 18.924ZM95.7608 23.388C96.9008 23.388 97.7528 23.814 98.3168 24.666C98.8928 25.506 99.1808 26.7 99.1808 28.248C99.1808 29.76 98.8688 30.966 98.2448 31.866C97.6328 32.754 96.7508 33.198 95.5988 33.198C95.0348 33.198 94.5248 33.084 94.0688 32.856C93.6128 32.616 93.2288 32.298 92.9168 31.902V36.546L91.8728 36.69V23.586H92.7728L92.8628 24.954C93.2108 24.462 93.6308 24.078 94.1228 23.802C94.6268 23.526 95.1728 23.388 95.7608 23.388ZM95.4008 32.316C96.2648 32.316 96.9248 31.974 97.3808 31.29C97.8368 30.606 98.0648 29.592 98.0648 28.248C98.0648 25.584 97.2308 24.252 95.5628 24.252C94.9988 24.252 94.5068 24.396 94.0868 24.684C93.6788 24.972 93.2888 25.368 92.9168 25.872V30.876C93.5408 31.836 94.3688 32.316 95.4008 32.316ZM108.006 30.912C108.006 31.404 108.066 31.758 108.186 31.974C108.318 32.19 108.522 32.352 108.798 32.46L108.564 33.198C108.132 33.114 107.796 32.952 107.556 32.712C107.328 32.472 107.178 32.106 107.106 31.614C106.458 32.67 105.48 33.198 104.172 33.198C103.272 33.198 102.558 32.946 102.03 32.442C101.514 31.926 101.256 31.242 101.256 30.39C101.256 29.418 101.598 28.668 102.282 28.14C102.978 27.612 103.938 27.348 105.162 27.348H106.962V26.43C106.962 25.674 106.794 25.128 106.458 24.792C106.122 24.444 105.564 24.27 104.784 24.27C104.064 24.27 103.212 24.45 102.228 24.81L101.958 24.018C103.014 23.598 104.004 23.388 104.928 23.388C106.98 23.388 108.006 24.384 108.006 26.376V30.912ZM104.352 32.352C105.48 32.352 106.35 31.8 106.962 30.696V28.104H105.324C104.364 28.104 103.632 28.29 103.128 28.662C102.624 29.034 102.372 29.592 102.372 30.336C102.372 30.984 102.546 31.482 102.894 31.83C103.242 32.178 103.728 32.352 104.352 32.352ZM116.09 32.604C115.49 33 114.83 33.198 114.11 33.198C113.39 33.198 112.826 32.988 112.418 32.568C112.01 32.136 111.806 31.518 111.806 30.714V24.432H110.222V23.586H111.806V21.336L112.85 21.21V23.586H115.28L115.154 24.432H112.85V30.66C112.85 31.212 112.964 31.626 113.192 31.902C113.42 32.166 113.768 32.298 114.236 32.298C114.716 32.298 115.196 32.16 115.676 31.884L116.09 32.604ZM124.408 27.942C124.408 28.206 124.396 28.458 124.372 28.698H118.09C118.15 29.922 118.438 30.834 118.954 31.434C119.482 32.022 120.172 32.316 121.024 32.316C121.516 32.316 121.948 32.244 122.32 32.1C122.704 31.944 123.118 31.704 123.562 31.38L124.048 32.046C123.58 32.43 123.1 32.718 122.608 32.91C122.116 33.102 121.57 33.198 120.97 33.198C119.722 33.198 118.744 32.772 118.036 31.92C117.328 31.068 116.974 29.886 116.974 28.374C116.974 27.378 117.124 26.508 117.424 25.764C117.736 25.008 118.174 24.426 118.738 24.018C119.314 23.598 119.98 23.388 120.736 23.388C121.936 23.388 122.848 23.796 123.472 24.612C124.096 25.416 124.408 26.526 124.408 27.942ZM123.382 27.618C123.382 26.562 123.16 25.74 122.716 25.152C122.284 24.552 121.636 24.252 120.772 24.252C119.992 24.252 119.362 24.552 118.882 25.152C118.402 25.752 118.138 26.664 118.09 27.888H123.382V27.618ZM138.258 30.912C138.258 31.404 138.318 31.758 138.438 31.974C138.57 32.19 138.774 32.352 139.05 32.46L138.816 33.198C138.384 33.114 138.048 32.952 137.808 32.712C137.58 32.472 137.43 32.106 137.358 31.614C136.71 32.67 135.732 33.198 134.424 33.198C133.524 33.198 132.81 32.946 132.282 32.442C131.766 31.926 131.508 31.242 131.508 30.39C131.508 29.418 131.85 28.668 132.534 28.14C133.23 27.612 134.19 27.348 135.414 27.348H137.214V26.43C137.214 25.674 137.046 25.128 136.71 24.792C136.374 24.444 135.816 24.27 135.036 24.27C134.316 24.27 133.464 24.45 132.48 24.81L132.21 24.018C133.266 23.598 134.256 23.388 135.18 23.388C137.232 23.388 138.258 24.384 138.258 26.376V30.912ZM134.604 32.352C135.732 32.352 136.602 31.8 137.214 30.696V28.104H135.576C134.616 28.104 133.884 28.29 133.38 28.662C132.876 29.034 132.624 29.592 132.624 30.336C132.624 30.984 132.798 31.482 133.146 31.83C133.494 32.178 133.98 32.352 134.604 32.352ZM148.652 33.198C148.136 33.198 147.728 33.048 147.428 32.748C147.14 32.448 146.996 32.004 146.996 31.416V19.752L148.04 19.626V31.38C148.04 31.992 148.292 32.298 148.796 32.298C149.048 32.298 149.264 32.256 149.444 32.172L149.732 32.946C149.396 33.114 149.036 33.198 148.652 33.198ZM157.963 30.912C157.963 31.404 158.023 31.758 158.143 31.974C158.275 32.19 158.479 32.352 158.755 32.46L158.521 33.198C158.089 33.114 157.753 32.952 157.513 32.712C157.285 32.472 157.135 32.106 157.063 31.614C156.415 32.67 155.437 33.198 154.129 33.198C153.229 33.198 152.515 32.946 151.987 32.442C151.471 31.926 151.213 31.242 151.213 30.39C151.213 29.418 151.555 28.668 152.239 28.14C152.935 27.612 153.895 27.348 155.119 27.348H156.919V26.43C156.919 25.674 156.751 25.128 156.415 24.792C156.079 24.444 155.521 24.27 154.741 24.27C154.021 24.27 153.169 24.45 152.185 24.81L151.915 24.018C152.971 23.598 153.961 23.388 154.885 23.388C156.937 23.388 157.963 24.384 157.963 26.376V30.912ZM154.309 32.352C155.437 32.352 156.307 31.8 156.919 30.696V28.104H155.281C154.321 28.104 153.589 28.29 153.085 28.662C152.581 29.034 152.329 29.592 152.329 30.336C152.329 30.984 152.503 31.482 152.851 31.83C153.199 32.178 153.685 32.352 154.309 32.352ZM163.892 23.388C164.48 23.388 165.014 23.478 165.494 23.658C165.974 23.826 166.442 24.084 166.898 24.432L166.412 25.116C165.98 24.816 165.572 24.6 165.188 24.468C164.804 24.324 164.384 24.252 163.928 24.252C163.304 24.252 162.8 24.396 162.416 24.684C162.032 24.972 161.84 25.356 161.84 25.836C161.84 26.292 162.002 26.646 162.326 26.898C162.662 27.15 163.262 27.39 164.126 27.618C165.194 27.894 165.962 28.242 166.43 28.662C166.91 29.082 167.15 29.682 167.15 30.462C167.15 31.302 166.826 31.968 166.178 32.46C165.53 32.952 164.72 33.198 163.748 33.198C163.028 33.198 162.398 33.096 161.858 32.892C161.318 32.676 160.826 32.376 160.382 31.992L160.958 31.326C161.378 31.662 161.804 31.914 162.236 32.082C162.68 32.238 163.178 32.316 163.73 32.316C164.426 32.316 164.984 32.16 165.404 31.848C165.836 31.524 166.052 31.08 166.052 30.516C166.052 30.132 165.98 29.82 165.836 29.58C165.692 29.34 165.446 29.136 165.098 28.968C164.75 28.788 164.24 28.608 163.568 28.428C162.572 28.164 161.852 27.834 161.408 27.438C160.976 27.042 160.76 26.514 160.76 25.854C160.76 25.386 160.898 24.966 161.174 24.594C161.45 24.21 161.822 23.916 162.29 23.712C162.77 23.496 163.304 23.388 163.892 23.388ZM180.815 30.912C180.815 31.404 180.875 31.758 180.995 31.974C181.127 32.19 181.331 32.352 181.607 32.46L181.373 33.198C180.941 33.114 180.605 32.952 180.365 32.712C180.137 32.472 179.987 32.106 179.915 31.614C179.267 32.67 178.289 33.198 176.981 33.198C176.081 33.198 175.367 32.946 174.839 32.442C174.323 31.926 174.065 31.242 174.065 30.39C174.065 29.418 174.407 28.668 175.091 28.14C175.787 27.612 176.747 27.348 177.971 27.348H179.771V26.43C179.771 25.674 179.603 25.128 179.267 24.792C178.931 24.444 178.373 24.27 177.593 24.27C176.873 24.27 176.021 24.45 175.037 24.81L174.767 24.018C175.823 23.598 176.813 23.388 177.737 23.388C179.789 23.388 180.815 24.384 180.815 26.376V30.912ZM177.161 32.352C178.289 32.352 179.159 31.8 179.771 30.696V28.104H178.133C177.173 28.104 176.441 28.29 175.937 28.662C175.433 29.034 175.181 29.592 175.181 30.336C175.181 30.984 175.355 31.482 175.703 31.83C176.051 32.178 176.537 32.352 177.161 32.352ZM190.633 23.586L187.375 33H186.079L182.713 23.586H183.865L186.727 32.082L189.517 23.586H190.633ZM199.449 27.942C199.449 28.206 199.437 28.458 199.413 28.698H193.131C193.191 29.922 193.479 30.834 193.995 31.434C194.523 32.022 195.213 32.316 196.065 32.316C196.557 32.316 196.989 32.244 197.361 32.1C197.745 31.944 198.159 31.704 198.603 31.38L199.089 32.046C198.621 32.43 198.141 32.718 197.649 32.91C197.157 33.102 196.611 33.198 196.011 33.198C194.763 33.198 193.785 32.772 193.077 31.92C192.369 31.068 192.015 29.886 192.015 28.374C192.015 27.378 192.165 26.508 192.465 25.764C192.777 25.008 193.215 24.426 193.779 24.018C194.355 23.598 195.021 23.388 195.777 23.388C196.977 23.388 197.889 23.796 198.513 24.612C199.137 25.416 199.449 26.526 199.449 27.942ZM198.423 27.618C198.423 26.562 198.201 25.74 197.757 25.152C197.325 24.552 196.677 24.252 195.813 24.252C195.033 24.252 194.403 24.552 193.923 25.152C193.443 25.752 193.179 26.664 193.131 27.888H198.423V27.618ZM206.076 23.388C206.448 23.388 206.76 23.424 207.012 23.496L206.814 24.486C206.55 24.414 206.274 24.378 205.986 24.378C205.35 24.378 204.834 24.612 204.438 25.08C204.054 25.536 203.73 26.256 203.466 27.24V33H202.422V23.586H203.322L203.412 25.692C203.664 24.912 204.006 24.336 204.438 23.964C204.882 23.58 205.428 23.388 206.076 23.388ZM210.181 23.586V33H209.137V23.586H210.181ZM211.009 18.924L211.477 19.86L207.967 21.39L207.625 20.778L211.009 18.924ZM219.838 30.912C219.838 31.404 219.898 31.758 220.018 31.974C220.15 32.19 220.354 32.352 220.63 32.46L220.396 33.198C219.964 33.114 219.628 32.952 219.388 32.712C219.16 32.472 219.01 32.106 218.938 31.614C218.29 32.67 217.312 33.198 216.004 33.198C215.104 33.198 214.39 32.946 213.862 32.442C213.346 31.926 213.088 31.242 213.088 30.39C213.088 29.418 213.43 28.668 214.114 28.14C214.81 27.612 215.77 27.348 216.994 27.348H218.794V26.43C218.794 25.674 218.626 25.128 218.29 24.792C217.954 24.444 217.396 24.27 216.616 24.27C215.896 24.27 215.044 24.45 214.06 24.81L213.79 24.018C214.846 23.598 215.836 23.388 216.76 23.388C218.812 23.388 219.838 24.384 219.838 26.376V30.912ZM216.184 32.352C217.312 32.352 218.182 31.8 218.794 30.696V28.104H217.156C216.196 28.104 215.464 28.29 214.96 28.662C214.456 29.034 214.204 29.592 214.204 30.336C214.204 30.984 214.378 31.482 214.726 31.83C215.074 32.178 215.56 32.352 216.184 32.352ZM225.767 23.388C226.355 23.388 226.889 23.478 227.369 23.658C227.849 23.826 228.317 24.084 228.773 24.432L228.287 25.116C227.855 24.816 227.447 24.6 227.063 24.468C226.679 24.324 226.259 24.252 225.803 24.252C225.179 24.252 224.675 24.396 224.291 24.684C223.907 24.972 223.715 25.356 223.715 25.836C223.715 26.292 223.877 26.646 224.201 26.898C224.537 27.15 225.137 27.39 226.001 27.618C227.069 27.894 227.837 28.242 228.305 28.662C228.785 29.082 229.025 29.682 229.025 30.462C229.025 31.302 228.701 31.968 228.053 32.46C227.405 32.952 226.595 33.198 225.623 33.198C224.903 33.198 224.273 33.096 223.733 32.892C223.193 32.676 222.701 32.376 222.257 31.992L222.833 31.326C223.253 31.662 223.679 31.914 224.111 32.082C224.555 32.238 225.053 32.316 225.605 32.316C226.301 32.316 226.859 32.16 227.279 31.848C227.711 31.524 227.927 31.08 227.927 30.516C227.927 30.132 227.855 29.82 227.711 29.58C227.567 29.34 227.321 29.136 226.973 28.968C226.625 28.788 226.115 28.608 225.443 28.428C224.447 28.164 223.727 27.834 223.283 27.438C222.851 27.042 222.635 26.514 222.635 25.854C222.635 25.386 222.773 24.966 223.049 24.594C223.325 24.21 223.697 23.916 224.165 23.712C224.645 23.496 225.179 23.388 225.767 23.388ZM243.554 19.752V33H242.654L242.528 31.56C241.88 32.652 240.938 33.198 239.702 33.198C238.61 33.198 237.746 32.766 237.11 31.902C236.486 31.026 236.174 29.838 236.174 28.338C236.174 27.366 236.318 26.508 236.606 25.764C236.906 25.02 237.332 24.438 237.884 24.018C238.448 23.598 239.108 23.388 239.864 23.388C240.932 23.388 241.814 23.814 242.51 24.666V19.626L243.554 19.752ZM239.864 32.334C240.464 32.334 240.968 32.19 241.376 31.902C241.796 31.614 242.174 31.176 242.51 30.588V25.674C241.838 24.726 241.016 24.252 240.044 24.252C239.192 24.252 238.514 24.606 238.01 25.314C237.518 26.022 237.278 27.024 237.29 28.32C237.29 29.616 237.518 30.612 237.974 31.308C238.43 31.992 239.06 32.334 239.864 32.334ZM254.047 27.942C254.047 28.206 254.035 28.458 254.011 28.698H247.729C247.789 29.922 248.077 30.834 248.593 31.434C249.121 32.022 249.811 32.316 250.663 32.316C251.155 32.316 251.587 32.244 251.959 32.1C252.343 31.944 252.757 31.704 253.201 31.38L253.687 32.046C253.219 32.43 252.739 32.718 252.247 32.91C251.755 33.102 251.209 33.198 250.609 33.198C249.361 33.198 248.383 32.772 247.675 31.92C246.967 31.068 246.613 29.886 246.613 28.374C246.613 27.378 246.763 26.508 247.063 25.764C247.375 25.008 247.813 24.426 248.377 24.018C248.953 23.598 249.619 23.388 250.375 23.388C251.575 23.388 252.487 23.796 253.111 24.612C253.735 25.416 254.047 26.526 254.047 27.942ZM253.021 27.618C253.021 26.562 252.799 25.74 252.355 25.152C251.923 24.552 251.275 24.252 250.411 24.252C249.631 24.252 249.001 24.552 248.521 25.152C248.041 25.752 247.777 26.664 247.729 27.888H253.021V27.618ZM258.585 33.198C258.069 33.198 257.661 33.048 257.361 32.748C257.073 32.448 256.929 32.004 256.929 31.416V19.752L257.973 19.626V31.38C257.973 31.992 258.225 32.298 258.729 32.298C258.981 32.298 259.197 32.256 259.377 32.172L259.665 32.946C259.329 33.114 258.969 33.198 258.585 33.198ZM273.444 23.586L270.186 33H268.89L265.524 23.586H266.676L269.538 32.082L272.328 23.586H273.444ZM282.26 27.942C282.26 28.206 282.248 28.458 282.224 28.698H275.942C276.002 29.922 276.29 30.834 276.806 31.434C277.334 32.022 278.024 32.316 278.876 32.316C279.368 32.316 279.8 32.244 280.172 32.1C280.556 31.944 280.97 31.704 281.414 31.38L281.9 32.046C281.432 32.43 280.952 32.718 280.46 32.91C279.968 33.102 279.422 33.198 278.822 33.198C277.574 33.198 276.596 32.772 275.888 31.92C275.18 31.068 274.826 29.886 274.826 28.374C274.826 27.378 274.976 26.508 275.276 25.764C275.588 25.008 276.026 24.426 276.59 24.018C277.166 23.598 277.832 23.388 278.588 23.388C279.788 23.388 280.7 23.796 281.324 24.612C281.948 25.416 282.26 26.526 282.26 27.942ZM281.234 27.618C281.234 26.562 281.012 25.74 280.568 25.152C280.136 24.552 279.488 24.252 278.624 24.252C277.844 24.252 277.214 24.552 276.734 25.152C276.254 25.752 275.99 26.664 275.942 27.888H281.234V27.618ZM289.39 23.388C290.23 23.388 290.878 23.646 291.334 24.162C291.79 24.666 292.018 25.368 292.018 26.268V33H290.974V26.412C290.974 24.96 290.38 24.234 289.192 24.234C288.592 24.234 288.058 24.402 287.59 24.738C287.134 25.062 286.696 25.542 286.276 26.178V33H285.232V19.752L286.276 19.626V25.152C287.116 23.976 288.154 23.388 289.39 23.388ZM296.788 23.586V33H295.744V23.586H296.788ZM297.616 18.924L298.084 19.86L294.574 21.39L294.232 20.778L297.616 18.924ZM303.818 23.388C304.358 23.388 304.838 23.466 305.258 23.622C305.678 23.766 306.086 24.006 306.482 24.342L305.96 25.026C305.648 24.774 305.324 24.588 304.988 24.468C304.664 24.348 304.292 24.288 303.872 24.288C302.984 24.288 302.276 24.636 301.748 25.332C301.22 26.016 300.956 27.018 300.956 28.338C300.956 29.646 301.214 30.63 301.73 31.29C302.258 31.95 302.966 32.28 303.854 32.28C304.274 32.28 304.652 32.214 304.988 32.082C305.336 31.95 305.684 31.752 306.032 31.488L306.536 32.19C305.744 32.862 304.844 33.198 303.836 33.198C303.032 33.198 302.33 33.006 301.73 32.622C301.13 32.238 300.662 31.686 300.326 30.966C300.002 30.234 299.84 29.364 299.84 28.356C299.84 27.36 300.002 26.49 300.326 25.746C300.662 24.99 301.13 24.408 301.73 24C302.33 23.592 303.026 23.388 303.818 23.388ZM315.463 33H314.563L314.509 31.326C313.765 32.574 312.739 33.198 311.431 33.198C310.579 33.198 309.919 32.952 309.451 32.46C308.995 31.956 308.767 31.242 308.767 30.318V23.586H309.811V30.21C309.811 30.942 309.961 31.482 310.261 31.83C310.573 32.166 311.041 32.334 311.665 32.334C312.757 32.334 313.675 31.692 314.419 30.408V23.586H315.463V33ZM320.847 33.198C320.331 33.198 319.923 33.048 319.623 32.748C319.335 32.448 319.191 32.004 319.191 31.416V19.752L320.235 19.626V31.38C320.235 31.992 320.487 32.298 320.991 32.298C321.243 32.298 321.459 32.256 321.639 32.172L321.927 32.946C321.591 33.114 321.231 33.198 320.847 33.198ZM327.548 23.388C328.796 23.388 329.768 23.82 330.464 24.684C331.172 25.536 331.526 26.73 331.526 28.266C331.526 29.79 331.166 30.996 330.446 31.884C329.738 32.76 328.766 33.198 327.53 33.198C326.282 33.198 325.304 32.766 324.596 31.902C323.9 31.026 323.552 29.826 323.552 28.302C323.552 27.306 323.714 26.436 324.038 25.692C324.362 24.948 324.824 24.378 325.424 23.982C326.024 23.586 326.732 23.388 327.548 23.388ZM327.548 24.27C326.636 24.27 325.928 24.612 325.424 25.296C324.92 25.98 324.668 26.982 324.668 28.302C324.668 29.61 324.914 30.606 325.406 31.29C325.91 31.974 326.618 32.316 327.53 32.316C328.442 32.316 329.15 31.974 329.654 31.29C330.17 30.606 330.428 29.598 330.428 28.266C330.428 26.958 330.176 25.968 329.672 25.296C329.18 24.612 328.472 24.27 327.548 24.27ZM52.758 61.912C52.758 62.404 52.818 62.758 52.938 62.974C53.07 63.19 53.274 63.352 53.55 63.46L53.316 64.198C52.884 64.114 52.548 63.952 52.308 63.712C52.08 63.472 51.93 63.106 51.858 62.614C51.21 63.67 50.232 64.198 48.924 64.198C48.024 64.198 47.31 63.946 46.782 63.442C46.266 62.926 46.008 62.242 46.008 61.39C46.008 60.418 46.35 59.668 47.034 59.14C47.73 58.612 48.69 58.348 49.914 58.348H51.714V57.43C51.714 56.674 51.546 56.128 51.21 55.792C50.874 55.444 50.316 55.27 49.536 55.27C48.816 55.27 47.964 55.45 46.98 55.81L46.71 55.018C47.766 54.598 48.756 54.388 49.68 54.388C51.732 54.388 52.758 55.384 52.758 57.376V61.912ZM49.104 63.352C50.232 63.352 51.102 62.8 51.714 61.696V59.104H50.076C49.116 59.104 48.384 59.29 47.88 59.662C47.376 60.034 47.124 60.592 47.124 61.336C47.124 61.984 47.298 62.482 47.646 62.83C47.994 63.178 48.48 63.352 49.104 63.352ZM60.7164 54.388C61.5684 54.388 62.2164 54.64 62.6604 55.144C63.1164 55.648 63.3444 56.356 63.3444 57.268V64H62.3004V57.412C62.3004 56.656 62.1504 56.104 61.8504 55.756C61.5504 55.408 61.1064 55.234 60.5184 55.234C59.9184 55.234 59.3844 55.402 58.9164 55.738C58.4604 56.062 58.0224 56.542 57.6024 57.178V64H56.5584V54.586H57.4584L57.5664 56.188C57.9504 55.624 58.4064 55.186 58.9344 54.874C59.4624 54.55 60.0564 54.388 60.7164 54.388ZM71.3541 63.604C70.7541 64 70.0941 64.198 69.3741 64.198C68.6541 64.198 68.0901 63.988 67.6821 63.568C67.2741 63.136 67.0701 62.518 67.0701 61.714V55.432H65.4861V54.586H67.0701V52.336L68.1141 52.21V54.586H70.5441L70.4181 55.432H68.1141V61.66C68.1141 62.212 68.2281 62.626 68.4561 62.902C68.6841 63.166 69.0321 63.298 69.5001 63.298C69.9801 63.298 70.4601 63.16 70.9401 62.884L71.3541 63.604ZM79.6719 58.942C79.6719 59.206 79.6599 59.458 79.6359 59.698H73.3539C73.4139 60.922 73.7019 61.834 74.2179 62.434C74.7459 63.022 75.4359 63.316 76.2879 63.316C76.7799 63.316 77.2119 63.244 77.5839 63.1C77.9679 62.944 78.3819 62.704 78.8259 62.38L79.3119 63.046C78.8439 63.43 78.3639 63.718 77.8719 63.91C77.3799 64.102 76.8339 64.198 76.2339 64.198C74.9859 64.198 74.0079 63.772 73.2999 62.92C72.5919 62.068 72.2379 60.886 72.2379 59.374C72.2379 58.378 72.3879 57.508 72.6879 56.764C72.9999 56.008 73.4379 55.426 74.0019 55.018C74.5779 54.598 75.2439 54.388 75.9999 54.388C77.1999 54.388 78.1119 54.796 78.7359 55.612C79.3599 56.416 79.6719 57.526 79.6719 58.942ZM78.6459 58.618C78.6459 57.562 78.4239 56.74 77.9799 56.152C77.5479 55.552 76.8999 55.252 76.0359 55.252C75.2559 55.252 74.6259 55.552 74.1459 56.152C73.6659 56.752 73.4019 57.664 73.3539 58.888H78.6459V58.618ZM84.9483 54.388C85.5363 54.388 86.0703 54.478 86.5503 54.658C87.0303 54.826 87.4983 55.084 87.9543 55.432L87.4683 56.116C87.0363 55.816 86.6283 55.6 86.2443 55.468C85.8603 55.324 85.4403 55.252 84.9843 55.252C84.3603 55.252 83.8563 55.396 83.4723 55.684C83.0883 55.972 82.8963 56.356 82.8963 56.836C82.8963 57.292 83.0583 57.646 83.3823 57.898C83.7183 58.15 84.3183 58.39 85.1823 58.618C86.2503 58.894 87.0183 59.242 87.4863 59.662C87.9663 60.082 88.2063 60.682 88.2063 61.462C88.2063 62.302 87.8823 62.968 87.2343 63.46C86.5863 63.952 85.7763 64.198 84.8043 64.198C84.0843 64.198 83.4543 64.096 82.9143 63.892C82.3743 63.676 81.8823 63.376 81.4383 62.992L82.0143 62.326C82.4343 62.662 82.8603 62.914 83.2923 63.082C83.7363 63.238 84.2343 63.316 84.7863 63.316C85.4823 63.316 86.0403 63.16 86.4603 62.848C86.8923 62.524 87.1083 62.08 87.1083 61.516C87.1083 61.132 87.0363 60.82 86.8923 60.58C86.7483 60.34 86.5023 60.136 86.1543 59.968C85.8063 59.788 85.2963 59.608 84.6243 59.428C83.6283 59.164 82.9083 58.834 82.4643 58.438C82.0323 58.042 81.8163 57.514 81.8163 56.854C81.8163 56.386 81.9543 55.966 82.2303 55.594C82.5063 55.21 82.8783 54.916 83.3463 54.712C83.8263 54.496 84.3603 54.388 84.9483 54.388ZM102.735 50.752V64H101.835L101.709 62.56C101.061 63.652 100.119 64.198 98.8833 64.198C97.7913 64.198 96.9273 63.766 96.2913 62.902C95.6673 62.026 95.3553 60.838 95.3553 59.338C95.3553 58.366 95.4993 57.508 95.7873 56.764C96.0873 56.02 96.5133 55.438 97.0653 55.018C97.6293 54.598 98.2893 54.388 99.0453 54.388C100.113 54.388 100.995 54.814 101.691 55.666V50.626L102.735 50.752ZM99.0453 63.334C99.6453 63.334 100.149 63.19 100.557 62.902C100.977 62.614 101.355 62.176 101.691 61.588V56.674C101.019 55.726 100.197 55.252 99.2253 55.252C98.3733 55.252 97.6953 55.606 97.1913 56.314C96.6993 57.022 96.4593 58.024 96.4713 59.32C96.4713 60.616 96.6993 61.612 97.1553 62.308C97.6113 62.992 98.2413 63.334 99.0453 63.334ZM113.229 58.942C113.229 59.206 113.217 59.458 113.193 59.698H106.911C106.971 60.922 107.259 61.834 107.775 62.434C108.303 63.022 108.993 63.316 109.845 63.316C110.337 63.316 110.769 63.244 111.141 63.1C111.525 62.944 111.939 62.704 112.383 62.38L112.869 63.046C112.401 63.43 111.921 63.718 111.429 63.91C110.937 64.102 110.391 64.198 109.791 64.198C108.543 64.198 107.565 63.772 106.857 62.92C106.149 62.068 105.795 60.886 105.795 59.374C105.795 58.378 105.945 57.508 106.245 56.764C106.557 56.008 106.995 55.426 107.559 55.018C108.135 54.598 108.801 54.388 109.557 54.388C110.757 54.388 111.669 54.796 112.293 55.612C112.917 56.416 113.229 57.526 113.229 58.942ZM112.203 58.618C112.203 57.562 111.981 56.74 111.537 56.152C111.105 55.552 110.457 55.252 109.593 55.252C108.813 55.252 108.183 55.552 107.703 56.152C107.223 56.752 106.959 57.664 106.911 58.888H112.203V58.618ZM127.942 54.586V67.69L126.898 67.546V62.632C126.598 63.112 126.214 63.496 125.746 63.784C125.278 64.06 124.726 64.198 124.09 64.198C122.998 64.198 122.134 63.766 121.498 62.902C120.874 62.026 120.562 60.838 120.562 59.338C120.562 58.366 120.712 57.508 121.012 56.764C121.312 56.02 121.738 55.438 122.29 55.018C122.854 54.598 123.514 54.388 124.27 54.388C125.35 54.388 126.25 54.832 126.97 55.72L127.042 54.586H127.942ZM124.27 63.334C124.87 63.334 125.374 63.19 125.782 62.902C126.19 62.614 126.562 62.182 126.898 61.606V56.656C126.238 55.72 125.422 55.252 124.45 55.252C123.598 55.252 122.92 55.606 122.416 56.314C121.912 57.022 121.666 58.024 121.678 59.32C121.678 60.616 121.906 61.612 122.362 62.308C122.818 62.992 123.454 63.334 124.27 63.334ZM138.364 64H137.464L137.41 62.326C136.666 63.574 135.64 64.198 134.332 64.198C133.48 64.198 132.82 63.952 132.352 63.46C131.896 62.956 131.668 62.242 131.668 61.318V54.586H132.712V61.21C132.712 61.942 132.862 62.482 133.162 62.83C133.474 63.166 133.942 63.334 134.566 63.334C135.658 63.334 136.576 62.692 137.32 61.408V54.586H138.364V64ZM148.859 58.942C148.859 59.206 148.847 59.458 148.823 59.698H142.541C142.601 60.922 142.889 61.834 143.405 62.434C143.933 63.022 144.623 63.316 145.475 63.316C145.967 63.316 146.399 63.244 146.771 63.1C147.155 62.944 147.569 62.704 148.013 62.38L148.499 63.046C148.031 63.43 147.551 63.718 147.059 63.91C146.567 64.102 146.021 64.198 145.421 64.198C144.173 64.198 143.195 63.772 142.487 62.92C141.779 62.068 141.425 60.886 141.425 59.374C141.425 58.378 141.575 57.508 141.875 56.764C142.187 56.008 142.625 55.426 143.189 55.018C143.765 54.598 144.431 54.388 145.187 54.388C146.387 54.388 147.299 54.796 147.923 55.612C148.547 56.416 148.859 57.526 148.859 58.942ZM147.833 58.618C147.833 57.562 147.611 56.74 147.167 56.152C146.735 55.552 146.087 55.252 145.223 55.252C144.443 55.252 143.813 55.552 143.333 56.152C142.853 56.752 142.589 57.664 142.541 58.888H147.833V58.618ZM157.903 54.586V64H156.859V54.586H157.903ZM157.363 50.446C157.603 50.446 157.795 50.518 157.939 50.662C158.083 50.806 158.155 50.986 158.155 51.202C158.155 51.418 158.083 51.598 157.939 51.742C157.795 51.886 157.603 51.958 157.363 51.958C157.135 51.958 156.949 51.886 156.805 51.742C156.661 51.598 156.589 51.418 156.589 51.202C156.589 50.986 156.661 50.806 156.805 50.662C156.949 50.518 157.135 50.446 157.363 50.446ZM170.891 54.388C171.647 54.388 172.241 54.646 172.673 55.162C173.117 55.678 173.339 56.38 173.339 57.268V64H172.295V57.412C172.295 56.668 172.151 56.122 171.863 55.774C171.587 55.414 171.197 55.234 170.693 55.234C170.165 55.234 169.691 55.402 169.271 55.738C168.851 56.074 168.443 56.554 168.047 57.178V64H167.003V57.412C167.003 56.668 166.859 56.122 166.571 55.774C166.295 55.414 165.905 55.234 165.401 55.234C164.861 55.234 164.381 55.402 163.961 55.738C163.541 56.074 163.139 56.554 162.755 57.178V64H161.711V54.586H162.611L162.701 56.188C163.061 55.624 163.487 55.186 163.979 54.874C164.471 54.55 165.011 54.388 165.599 54.388C166.199 54.388 166.703 54.556 167.111 54.892C167.519 55.216 167.795 55.672 167.939 56.26C168.311 55.672 168.743 55.216 169.235 54.892C169.739 54.556 170.291 54.388 170.891 54.388ZM180.944 54.388C182.084 54.388 182.936 54.814 183.5 55.666C184.076 56.506 184.364 57.7 184.364 59.248C184.364 60.76 184.052 61.966 183.428 62.866C182.816 63.754 181.934 64.198 180.782 64.198C180.218 64.198 179.708 64.084 179.252 63.856C178.796 63.616 178.412 63.298 178.1 62.902V67.546L177.056 67.69V54.586H177.956L178.046 55.954C178.394 55.462 178.814 55.078 179.306 54.802C179.81 54.526 180.356 54.388 180.944 54.388ZM180.584 63.316C181.448 63.316 182.108 62.974 182.564 62.29C183.02 61.606 183.248 60.592 183.248 59.248C183.248 56.584 182.414 55.252 180.746 55.252C180.182 55.252 179.69 55.396 179.27 55.684C178.862 55.972 178.472 56.368 178.1 56.872V61.876C178.724 62.836 179.552 63.316 180.584 63.316ZM188.559 54.586V64H187.515V54.586H188.559ZM188.019 50.446C188.259 50.446 188.451 50.518 188.595 50.662C188.739 50.806 188.811 50.986 188.811 51.202C188.811 51.418 188.739 51.598 188.595 51.742C188.451 51.886 188.259 51.958 188.019 51.958C187.791 51.958 187.605 51.886 187.461 51.742C187.317 51.598 187.245 51.418 187.245 51.202C187.245 50.986 187.317 50.806 187.461 50.662C187.605 50.518 187.791 50.446 188.019 50.446ZM199.081 50.752V64H198.181L198.055 62.56C197.407 63.652 196.465 64.198 195.229 64.198C194.137 64.198 193.273 63.766 192.637 62.902C192.013 62.026 191.701 60.838 191.701 59.338C191.701 58.366 191.845 57.508 192.133 56.764C192.433 56.02 192.859 55.438 193.411 55.018C193.975 54.598 194.635 54.388 195.391 54.388C196.459 54.388 197.341 54.814 198.037 55.666V50.626L199.081 50.752ZM195.391 63.334C195.991 63.334 196.495 63.19 196.903 62.902C197.323 62.614 197.701 62.176 198.037 61.588V56.674C197.365 55.726 196.543 55.252 195.571 55.252C194.719 55.252 194.041 55.606 193.537 56.314C193.045 57.022 192.805 58.024 192.817 59.32C192.817 60.616 193.045 61.612 193.501 62.308C193.957 62.992 194.587 63.334 195.391 63.334ZM208.746 61.912C208.746 62.404 208.806 62.758 208.926 62.974C209.058 63.19 209.262 63.352 209.538 63.46L209.304 64.198C208.872 64.114 208.536 63.952 208.296 63.712C208.068 63.472 207.918 63.106 207.846 62.614C207.198 63.67 206.22 64.198 204.912 64.198C204.012 64.198 203.298 63.946 202.77 63.442C202.254 62.926 201.996 62.242 201.996 61.39C201.996 60.418 202.338 59.668 203.022 59.14C203.718 58.612 204.678 58.348 205.902 58.348H207.702V57.43C207.702 56.674 207.534 56.128 207.198 55.792C206.862 55.444 206.304 55.27 205.524 55.27C204.804 55.27 203.952 55.45 202.968 55.81L202.698 55.018C203.754 54.598 204.744 54.388 205.668 54.388C207.72 54.388 208.746 55.384 208.746 57.376V61.912ZM205.092 63.352C206.22 63.352 207.09 62.8 207.702 61.696V59.104H206.064C205.104 59.104 204.372 59.29 203.868 59.662C203.364 60.034 203.112 60.592 203.112 61.336C203.112 61.984 203.286 62.482 203.634 62.83C203.982 63.178 204.468 63.352 205.092 63.352ZM216.705 54.388C217.557 54.388 218.205 54.64 218.649 55.144C219.105 55.648 219.333 56.356 219.333 57.268V64H218.289V57.412C218.289 56.656 218.139 56.104 217.839 55.756C217.539 55.408 217.095 55.234 216.507 55.234C215.907 55.234 215.373 55.402 214.905 55.738C214.449 56.062 214.011 56.542 213.591 57.178V64H212.547V54.586H213.447L213.555 56.188C213.939 55.624 214.395 55.186 214.923 54.874C215.451 54.55 216.045 54.388 216.705 54.388ZM230.39 54.388C230.978 54.388 231.512 54.478 231.992 54.658C232.472 54.826 232.94 55.084 233.396 55.432L232.91 56.116C232.478 55.816 232.07 55.6 231.686 55.468C231.302 55.324 230.882 55.252 230.426 55.252C229.802 55.252 229.298 55.396 228.914 55.684C228.53 55.972 228.338 56.356 228.338 56.836C228.338 57.292 228.5 57.646 228.824 57.898C229.16 58.15 229.76 58.39 230.624 58.618C231.692 58.894 232.46 59.242 232.928 59.662C233.408 60.082 233.648 60.682 233.648 61.462C233.648 62.302 233.324 62.968 232.676 63.46C232.028 63.952 231.218 64.198 230.246 64.198C229.526 64.198 228.896 64.096 228.356 63.892C227.816 63.676 227.324 63.376 226.88 62.992L227.456 62.326C227.876 62.662 228.302 62.914 228.734 63.082C229.178 63.238 229.676 63.316 230.228 63.316C230.924 63.316 231.482 63.16 231.902 62.848C232.334 62.524 232.55 62.08 232.55 61.516C232.55 61.132 232.478 60.82 232.334 60.58C232.19 60.34 231.944 60.136 231.596 59.968C231.248 59.788 230.738 59.608 230.066 59.428C229.07 59.164 228.35 58.834 227.906 58.438C227.474 58.042 227.258 57.514 227.258 56.854C227.258 56.386 227.396 55.966 227.672 55.594C227.948 55.21 228.32 54.916 228.788 54.712C229.268 54.496 229.802 54.388 230.39 54.388ZM243.041 64H242.141L242.087 62.326C241.343 63.574 240.317 64.198 239.009 64.198C238.157 64.198 237.497 63.952 237.029 63.46C236.573 62.956 236.345 62.242 236.345 61.318V54.586H237.389V61.21C237.389 61.942 237.539 62.482 237.839 62.83C238.151 63.166 238.619 63.334 239.243 63.334C240.335 63.334 241.253 62.692 241.997 61.408V54.586H243.041V64ZM254.659 51.49C254.119 51.49 253.711 51.616 253.435 51.868C253.171 52.12 253.039 52.522 253.039 53.074V54.586H255.523L255.379 55.432H253.039V64H251.995V55.432H250.357V54.586H251.995V53.038C251.995 52.294 252.223 51.706 252.679 51.274C253.147 50.842 253.789 50.626 254.605 50.626C255.337 50.626 256.069 50.794 256.801 51.13L256.441 51.904C255.817 51.628 255.223 51.49 254.659 51.49ZM264.276 64H263.376L263.322 62.326C262.578 63.574 261.552 64.198 260.244 64.198C259.392 64.198 258.732 63.952 258.264 63.46C257.808 62.956 257.58 62.242 257.58 61.318V54.586H258.624V61.21C258.624 61.942 258.774 62.482 259.074 62.83C259.386 63.166 259.854 63.334 260.478 63.334C261.57 63.334 262.488 62.692 263.232 61.408V54.586H264.276V64ZM272.252 54.388C273.104 54.388 273.752 54.64 274.196 55.144C274.652 55.648 274.88 56.356 274.88 57.268V64H273.836V57.412C273.836 56.656 273.686 56.104 273.386 55.756C273.086 55.408 272.642 55.234 272.054 55.234C271.454 55.234 270.92 55.402 270.452 55.738C269.996 56.062 269.558 56.542 269.138 57.178V64H268.094V54.586H268.994L269.102 56.188C269.486 55.624 269.942 55.186 270.47 54.874C270.998 54.55 271.592 54.388 272.252 54.388ZM281.827 54.388C282.367 54.388 282.847 54.466 283.267 54.622C283.687 54.766 284.095 55.006 284.491 55.342L283.969 56.026C283.657 55.774 283.333 55.588 282.997 55.468C282.673 55.348 282.301 55.288 281.881 55.288C280.993 55.288 280.285 55.636 279.757 56.332C279.229 57.016 278.965 58.018 278.965 59.338C278.965 60.646 279.223 61.63 279.739 62.29C280.267 62.95 280.975 63.28 281.863 63.28C282.283 63.28 282.661 63.214 282.997 63.082C283.345 62.95 283.693 62.752 284.041 62.488L284.545 63.19C283.753 63.862 282.853 64.198 281.845 64.198C281.041 64.198 280.339 64.006 279.739 63.622C279.139 63.238 278.671 62.686 278.335 61.966C278.011 61.234 277.849 60.364 277.849 59.356C277.849 58.36 278.011 57.49 278.335 56.746C278.671 55.99 279.139 55.408 279.739 55C280.339 54.592 281.035 54.388 281.827 54.388ZM288.087 54.586V64H287.043V54.586H288.087ZM287.547 50.446C287.787 50.446 287.979 50.518 288.123 50.662C288.267 50.806 288.339 50.986 288.339 51.202C288.339 51.418 288.267 51.598 288.123 51.742C287.979 51.886 287.787 51.958 287.547 51.958C287.319 51.958 287.133 51.886 286.989 51.742C286.845 51.598 286.773 51.418 286.773 51.202C286.773 50.986 286.845 50.806 286.989 50.662C287.133 50.518 287.319 50.446 287.547 50.446ZM295.134 54.388C296.382 54.388 297.354 54.82 298.05 55.684C298.758 56.536 299.112 57.73 299.112 59.266C299.112 60.79 298.752 61.996 298.032 62.884C297.324 63.76 296.352 64.198 295.116 64.198C293.868 64.198 292.89 63.766 292.182 62.902C291.486 62.026 291.138 60.826 291.138 59.302C291.138 58.306 291.3 57.436 291.624 56.692C291.948 55.948 292.41 55.378 293.01 54.982C293.61 54.586 294.318 54.388 295.134 54.388ZM295.134 55.27C294.222 55.27 293.514 55.612 293.01 56.296C292.506 56.98 292.254 57.982 292.254 59.302C292.254 60.61 292.5 61.606 292.992 62.29C293.496 62.974 294.204 63.316 295.116 63.316C296.028 63.316 296.736 62.974 297.24 62.29C297.756 61.606 298.014 60.598 298.014 59.266C298.014 57.958 297.762 56.968 297.258 56.296C296.766 55.612 296.058 55.27 295.134 55.27ZM306.336 54.388C307.188 54.388 307.836 54.64 308.28 55.144C308.736 55.648 308.964 56.356 308.964 57.268V64H307.92V57.412C307.92 56.656 307.77 56.104 307.47 55.756C307.17 55.408 306.726 55.234 306.138 55.234C305.538 55.234 305.004 55.402 304.536 55.738C304.08 56.062 303.642 56.542 303.222 57.178V64H302.178V54.586H303.078L303.186 56.188C303.57 55.624 304.026 55.186 304.554 54.874C305.082 54.55 305.676 54.388 306.336 54.388ZM318.539 61.912C318.539 62.404 318.599 62.758 318.719 62.974C318.851 63.19 319.055 63.352 319.331 63.46L319.097 64.198C318.665 64.114 318.329 63.952 318.089 63.712C317.861 63.472 317.711 63.106 317.639 62.614C316.991 63.67 316.013 64.198 314.705 64.198C313.805 64.198 313.091 63.946 312.563 63.442C312.047 62.926 311.789 62.242 311.789 61.39C311.789 60.418 312.131 59.668 312.815 59.14C313.511 58.612 314.471 58.348 315.695 58.348H317.495V57.43C317.495 56.674 317.327 56.128 316.991 55.792C316.655 55.444 316.097 55.27 315.317 55.27C314.597 55.27 313.745 55.45 312.761 55.81L312.491 55.018C313.547 54.598 314.537 54.388 315.461 54.388C317.513 54.388 318.539 55.384 318.539 57.376V61.912ZM314.885 63.352C316.013 63.352 316.883 62.8 317.495 61.696V59.104H315.857C314.897 59.104 314.165 59.29 313.661 59.662C313.157 60.034 312.905 60.592 312.905 61.336C312.905 61.984 313.079 62.482 313.427 62.83C313.775 63.178 314.261 63.352 314.885 63.352ZM331.52 54.388C332.276 54.388 332.87 54.646 333.302 55.162C333.746 55.678 333.968 56.38 333.968 57.268V64H332.924V57.412C332.924 56.668 332.78 56.122 332.492 55.774C332.216 55.414 331.826 55.234 331.322 55.234C330.794 55.234 330.32 55.402 329.9 55.738C329.48 56.074 329.072 56.554 328.676 57.178V64H327.632V57.412C327.632 56.668 327.488 56.122 327.2 55.774C326.924 55.414 326.534 55.234 326.03 55.234C325.49 55.234 325.01 55.402 324.59 55.738C324.17 56.074 323.768 56.554 323.384 57.178V64H322.34V54.586H323.24L323.33 56.188C323.69 55.624 324.116 55.186 324.608 54.874C325.1 54.55 325.64 54.388 326.228 54.388C326.828 54.388 327.332 54.556 327.74 54.892C328.148 55.216 328.424 55.672 328.568 56.26C328.94 55.672 329.372 55.216 329.864 54.892C330.368 54.556 330.92 54.388 331.52 54.388ZM338.729 54.586V64H337.685V54.586H338.729ZM338.189 50.446C338.429 50.446 338.621 50.518 338.765 50.662C338.909 50.806 338.981 50.986 338.981 51.202C338.981 51.418 338.909 51.598 338.765 51.742C338.621 51.886 338.429 51.958 338.189 51.958C337.961 51.958 337.775 51.886 337.631 51.742C337.487 51.598 337.415 51.418 337.415 51.202C337.415 50.986 337.487 50.806 337.631 50.662C337.775 50.518 337.961 50.446 338.189 50.446ZM349.215 58.942C349.215 59.206 349.203 59.458 349.179 59.698H342.897C342.957 60.922 343.245 61.834 343.761 62.434C344.289 63.022 344.979 63.316 345.831 63.316C346.323 63.316 346.755 63.244 347.127 63.1C347.511 62.944 347.925 62.704 348.369 62.38L348.855 63.046C348.387 63.43 347.907 63.718 347.415 63.91C346.923 64.102 346.377 64.198 345.777 64.198C344.529 64.198 343.551 63.772 342.843 62.92C342.135 62.068 341.781 60.886 341.781 59.374C341.781 58.378 341.931 57.508 342.231 56.764C342.543 56.008 342.981 55.426 343.545 55.018C344.121 54.598 344.787 54.388 345.543 54.388C346.743 54.388 347.655 54.796 348.279 55.612C348.903 56.416 349.215 57.526 349.215 58.942ZM348.189 58.618C348.189 57.562 347.967 56.74 347.523 56.152C347.091 55.552 346.443 55.252 345.579 55.252C344.799 55.252 344.169 55.552 343.689 56.152C343.209 56.752 342.945 57.664 342.897 58.888H348.189V58.618ZM356.345 54.388C357.197 54.388 357.845 54.64 358.289 55.144C358.745 55.648 358.973 56.356 358.973 57.268V64H357.929V57.412C357.929 56.656 357.779 56.104 357.479 55.756C357.179 55.408 356.735 55.234 356.147 55.234C355.547 55.234 355.013 55.402 354.545 55.738C354.089 56.062 353.651 56.542 353.231 57.178V64H352.187V54.586H353.087L353.195 56.188C353.579 55.624 354.035 55.186 354.563 54.874C355.091 54.55 355.685 54.388 356.345 54.388ZM366.983 63.604C366.383 64 365.723 64.198 365.003 64.198C364.283 64.198 363.719 63.988 363.311 63.568C362.903 63.136 362.699 62.518 362.699 61.714V55.432H361.115V54.586H362.699V52.336L363.743 52.21V54.586H366.173L366.047 55.432H363.743V61.66C363.743 62.212 363.857 62.626 364.085 62.902C364.313 63.166 364.661 63.298 365.129 63.298C365.609 63.298 366.089 63.16 366.569 62.884L366.983 63.604ZM371.863 54.388C373.111 54.388 374.083 54.82 374.779 55.684C375.487 56.536 375.841 57.73 375.841 59.266C375.841 60.79 375.481 61.996 374.761 62.884C374.053 63.76 373.081 64.198 371.845 64.198C370.597 64.198 369.619 63.766 368.911 62.902C368.215 62.026 367.867 60.826 367.867 59.302C367.867 58.306 368.029 57.436 368.353 56.692C368.677 55.948 369.139 55.378 369.739 54.982C370.339 54.586 371.047 54.388 371.863 54.388ZM371.863 55.27C370.951 55.27 370.243 55.612 369.739 56.296C369.235 56.98 368.983 57.982 368.983 59.302C368.983 60.61 369.229 61.606 369.721 62.29C370.225 62.974 370.933 63.316 371.845 63.316C372.757 63.316 373.465 62.974 373.969 62.29C374.485 61.606 374.743 60.598 374.743 59.266C374.743 57.958 374.491 56.968 373.987 56.296C373.495 55.612 372.787 55.27 371.863 55.27Z" fill="black"/>
<path d="M22.61 49.99L13.53 40.91C14.46 38.57 13.98 35.81 12.09 33.91C9.78996 31.61 6.20996 31.4 3.65996 33.26L7.49996 37.11L6.07996 38.52L2.24996 34.69C0.389961 37.23 0.599962 40.82 2.89996 43.11C4.75996 44.97 7.46996 45.46 9.78996 44.59L18.9 53.7C19.29 54.09 19.92 54.09 20.31 53.7L22.61 51.4C23.01 51.02 23.01 50.39 22.61 49.99ZM19.61 51.59L10.15 42.13C9.53996 42.58 8.85996 42.85 8.14996 42.95C6.78996 43.15 5.35996 42.74 4.31996 41.7C3.36996 40.76 2.92996 39.5 2.99996 38.26L6.08996 41.35L10.33 37.11L7.23996 34.02C8.47996 33.95 9.72996 34.39 10.68 35.33C11.76 36.41 12.17 37.9 11.92 39.29C11.8 40 11.5 40.66 11.04 41.25L20.49 50.7L19.61 51.59Z" fill="black"/>
</svg>
